<?xml version="1.0" standalone="no"?>
<!DOCTYPE svg PUBLIC "-//W3C//DTD SVG 20010904//EN"
 "http://www.w3.org/TR/2001/REC-SVG-20010904/DTD/svg10.dtd">
<svg version="1.0" xmlns="http://www.w3.org/2000/svg"
 width="700.000000pt" height="700.000000pt" viewBox="0 0 700.000000 700.000000"
 preserveAspectRatio="xMidYMid meet">
<metadata>
Created by potrace 1.14, written by Peter Selinger 2001-2017
</metadata>
<g transform="translate(0.000000,700.000000) scale(0.100000,-0.100000)"
fill="#000000" stroke="none">
<path d="M3407 6024 c-1 -1 -29 -4 -62 -7 -87 -8 -207 -34 -289 -64 -81 -29
-236 -108 -272 -138 -7 -5 -27 -21 -46 -35 -43 -33 -122 -103 -126 -113 -2 -4
-9 -4 -14 -1 -7 4 -8 2 -4 -4 3 -6 1 -14 -6 -19 -50 -31 -183 -231 -232 -350
-93 -221 -124 -494 -80 -694 17 -77 19 -73 -37 -86 -28 -7 -55 -10 -60 -7 -5
3 -9 1 -9 -4 0 -5 -30 -19 -67 -31 -118 -39 -367 -169 -429 -226 -7 -5 -33
-26 -58 -45 -65 -50 -183 -165 -241 -235 -28 -33 -53 -62 -56 -65 -3 -3 -31
-43 -61 -90 -185 -283 -282 -604 -281 -935 0 -535 247 -1027 678 -1356 33 -25
71 -52 85 -59 14 -7 27 -16 30 -19 5 -7 101 -65 110 -66 3 -1 40 -18 83 -39
83 -39 261 -101 312 -109 17 -3 37 -7 45 -10 8 -3 33 -8 55 -11 22 -4 60 -9
85 -13 58 -10 348 -10 422 -1 72 10 193 34 254 53 26 8 51 12 56 9 4 -3 8 0 8
5 0 6 6 11 13 11 17 0 118 41 195 78 122 60 241 135 307 193 19 17 39 28 45
24 6 -4 9 -3 8 2 -2 5 38 49 88 99 103 102 149 156 223 268 50 74 163 286 169
317 1 8 7 23 12 34 7 17 32 89 35 105 1 3 7 25 14 48 11 41 14 43 39 37 53
-14 316 -13 417 1 330 46 625 192 855 424 105 106 158 176 238 307 89 149 165
370 191 558 9 70 7 358 -3 405 -9 40 -15 72 -21 110 -10 63 -75 243 -120 335
-175 357 -493 635 -870 758 -123 41 -204 57 -355 72 -14 2 -61 3 -106 4 l-80
1 -47 68 c-103 148 -254 279 -432 374 -53 28 -200 85 -238 92 -12 2 -40 9 -63
15 -52 14 -297 34 -307 25z"/>
</g>
</svg>
